<?xml version="1.0" encoding="UTF-8"?>
<!DOCTYPE svg PUBLIC "-//W3C//DTD SVG 1.1//EN" "http://www.w3.org/Graphics/SVG/1.1/DTD/svg11.dtd">
<svg version="1.1" xmlns="http://www.w3.org/2000/svg" xmlns:xlink="http://www.w3.org/1999/xlink" x="0px" y="0px" width="128" height="128" viewBox="0, 0, 128, 128">
  <g id="Background">
    <rect x="0" y="0" width="128" height="128" fill="#000000" fill-opacity="0"/>
  </g>
  <g id="Background">
    <path d="M18.093,6 L109.905,6 C116.561,6 122,11.439 122,18.093 L122,109.907 C122,116.561 116.561,122 109.905,122 L18.093,122 C11.439,122 6,116.561 6,109.907 L6,18.093 C6,11.439 11.439,6 18.093,6" fill="#737370"/>
    <path d="M70.726,39.705 C73.718,34.247 76.541,30.567 84.99,30.109 C85.122,31.558 85.737,32.855 86.678,33.85 C79.389,33.941 76.805,36.713 74.348,41.007 C78.03,43.335 79.496,48.139 77.586,52.177 L74.878,57.89 C81.02,63.645 84.861,71.819 84.861,80.903 C84.861,98.312 70.749,112.424 53.341,112.424 C35.931,112.424 21.819,98.312 21.819,80.903 C21.819,63.49 35.931,49.381 53.341,49.381 C55.345,49.381 57.309,49.573 59.213,49.929 L61.711,44.659 C63.365,41.162 67.072,39.257 70.726,39.705 z M85.154,28 L78.582,22.515 L81.007,19.602 L87.173,24.752 C86.195,25.589 85.478,26.716 85.154,28 z M89.953,23.378 L88.706,15.303 L92.46,14.743 L93.857,23.802 C93.058,23.446 92.186,23.241 91.255,23.241 C90.807,23.241 90.374,23.286 89.953,23.378 z M91.15,44.582 L89.775,35.658 C90.25,35.768 90.748,35.832 91.255,35.832 C92.072,35.832 92.853,35.677 93.57,35.399 L94.899,44.02 z M102.659,39.202 L95.547,34.142 C96.483,33.275 97.15,32.128 97.421,30.831 L104.855,36.124 z M106.193,24.319 L97.479,28.566 C97.274,27.259 96.675,26.082 95.79,25.168 L104.531,20.907 z" fill="#EBEDED"/>
    <path d="M76.12,88.579 C72.937,98.563 63.56,105.788 52.555,105.788 C40.106,105.788 29.807,96.59 28.085,84.616 C33.255,93.261 42.712,99.056 53.523,99.056 C62.579,99.056 70.686,94.987 76.12,88.579" fill="#737370"/>
    <path d="M64.132,66.041 C71.685,66.041 74.343,72.047 74.343,78.564 C74.343,80.947 72.407,82.884 70.022,82.884 C67.64,82.884 65.703,80.947 65.703,78.564 C65.703,76.18 67.64,74.243 70.022,74.243 C70.233,74.243 70.438,74.258 70.639,74.288 C69.932,74.034 69.168,73.892 68.374,73.892 C64.702,73.892 61.738,76.865 61.738,80.531 C61.738,82.985 63.062,85.117 65.031,86.277 C64.735,86.296 64.433,86.314 64.132,86.314 C58.537,86.314 53.998,81.77 53.998,76.175 C53.998,70.576 58.537,66.041 64.132,66.041 z M46.481,73.27 L46.49,73.499 C46.49,75.418 44.928,76.979 43.01,76.979 C41.082,76.979 39.521,75.418 39.521,73.499 C39.521,72.399 40.032,71.416 40.827,70.778 C38.786,71.284 37.273,73.125 37.273,75.321 C37.273,77.148 38.311,78.724 39.832,79.5 C39.534,79.533 39.237,79.555 38.936,79.555 C34.694,79.555 31.249,76.115 31.249,71.873 C31.249,67.635 34.694,64.196 38.936,64.196 C43.17,64.196 46.613,67.635 46.613,71.873 C46.613,72.353 46.563,72.819 46.481,73.27" fill="#737370"/>
  </g>
  <defs/>
</svg>
