<?xml version="1.0" encoding="UTF-8"?>
<!DOCTYPE svg PUBLIC "-//W3C//DTD SVG 1.1//EN" "http://www.w3.org/Graphics/SVG/1.1/DTD/svg11.dtd">
<svg version="1.1" xmlns="http://www.w3.org/2000/svg" xmlns:xlink="http://www.w3.org/1999/xlink" x="0px" y="0px" width="1200" height="1200" viewBox="0, 0, 1200, 1200">
  <g id="Background">
    <rect x="0" y="0" width="1200" height="1200" fill="#000000" fill-opacity="0"/>
  </g>
  <g id="Background"/>
  <g id="Layer 1">
    <g>
      <path d="M480.5,80.5 L560.5,80.5 L560.5,160.5 L480.5,160.5 z" fill="#8FC7ED"/>
      <path d="M480.5,80.5 L560.5,80.5 L560.5,160.5 L480.5,160.5 z" fill-opacity="0" stroke="#006CA9" stroke-width="4" stroke-linejoin="bevel"/>
    </g>
    <g>
      <path d="M560.5,80.5 L640.5,80.5 L640.5,160.5 L560.5,160.5 z" fill="#8FC7ED"/>
      <path d="M560.5,80.5 L640.5,80.5 L640.5,160.5 L560.5,160.5 z" fill-opacity="0" stroke="#006CA9" stroke-width="4" stroke-linejoin="bevel"/>
    </g>
    <g>
      <path d="M640.5,80.5 L720.5,80.5 L720.5,160.5 L640.5,160.5 z" fill="#C5C6C6"/>
      <path d="M640.5,80.5 L720.5,80.5 L720.5,160.5 L640.5,160.5 z" fill-opacity="0" stroke="#737370" stroke-width="4" stroke-linejoin="bevel"/>
    </g>
    <g>
      <path d="M480.5,160.5 L560.5,160.5 L560.5,240.5 L480.5,240.5 z" fill="#8FC7ED"/>
      <path d="M480.5,160.5 L560.5,160.5 L560.5,240.5 L480.5,240.5 z" fill-opacity="0" stroke="#006CA9" stroke-width="4" stroke-linejoin="bevel"/>
    </g>
    <g>
      <path d="M560.5,160.5 L640.5,160.5 L640.5,240.5 L560.5,240.5 z" fill="#8FC7ED"/>
      <path d="M560.5,160.5 L640.5,160.5 L640.5,240.5 L560.5,240.5 z" fill-opacity="0" stroke="#006CA9" stroke-width="4" stroke-linejoin="bevel"/>
    </g>
    <g>
      <path d="M640.5,160.5 L720.5,160.5 L720.5,240.5 L640.5,240.5 z" fill="#C5C6C6"/>
      <path d="M640.5,160.5 L720.5,160.5 L720.5,240.5 L640.5,240.5 z" fill-opacity="0" stroke="#737370" stroke-width="4" stroke-linejoin="bevel"/>
    </g>
    <g>
      <path d="M480.5,238.5 L560.5,238.5 L560.5,318.5 L480.5,318.5 z" fill="#8FC7ED"/>
      <path d="M480.5,238.5 L560.5,238.5 L560.5,318.5 L480.5,318.5 z" fill-opacity="0" stroke="#006CA9" stroke-width="4" stroke-linejoin="bevel"/>
    </g>
    <g>
      <path d="M560.5,238.5 L640.5,238.5 L640.5,318.5 L560.5,318.5 z" fill="#8FC7ED"/>
      <path d="M560.5,238.5 L640.5,238.5 L640.5,318.5 L560.5,318.5 z" fill-opacity="0" stroke="#006CA9" stroke-width="4" stroke-linejoin="bevel"/>
    </g>
    <g>
      <path d="M640.5,238.5 L720.5,238.5 L720.5,318.5 L640.5,318.5 z" fill="#C5C6C6"/>
      <path d="M640.5,238.5 L720.5,238.5 L720.5,318.5 L640.5,318.5 z" fill-opacity="0" stroke="#737370" stroke-width="4" stroke-linejoin="bevel"/>
    </g>
    <g>
      <path d="M80.5,80.5 L160.5,80.5 L160.5,160.5 L80.5,160.5 z" fill="#C5C6C6"/>
      <path d="M80.5,80.5 L160.5,80.5 L160.5,160.5 L80.5,160.5 z" fill-opacity="0" stroke="#737370" stroke-width="4" stroke-linejoin="bevel"/>
    </g>
    <g>
      <path d="M160.5,80.5 L240.5,80.5 L240.5,160.5 L160.5,160.5 z" fill="#C5C6C6"/>
      <path d="M160.5,80.5 L240.5,80.5 L240.5,160.5 L160.5,160.5 z" fill-opacity="0" stroke="#737370" stroke-width="4" stroke-linejoin="bevel"/>
    </g>
    <g>
      <path d="M240.5,80.5 L320.5,80.5 L320.5,160.5 L240.5,160.5 z" fill="#C5C6C6"/>
      <path d="M240.5,80.5 L320.5,80.5 L320.5,160.5 L240.5,160.5 z" fill-opacity="0" stroke="#737370" stroke-width="4" stroke-linejoin="bevel"/>
    </g>
    <g>
      <path d="M80.5,160.5 L160.5,160.5 L160.5,240.5 L80.5,240.5 z" fill="#C5C6C6"/>
      <path d="M80.5,160.5 L160.5,160.5 L160.5,240.5 L80.5,240.5 z" fill-opacity="0" stroke="#737370" stroke-width="4" stroke-linejoin="bevel"/>
    </g>
    <g>
      <path d="M160.5,160.5 L240.5,160.5 L240.5,240.5 L160.5,240.5 z" fill="#C5C6C6"/>
      <path d="M160.5,160.5 L240.5,160.5 L240.5,240.5 L160.5,240.5 z" fill-opacity="0" stroke="#737370" stroke-width="4" stroke-linejoin="bevel"/>
    </g>
    <g>
      <path d="M240.5,160.5 L320.5,160.5 L320.5,240.5 L240.5,240.5 z" fill="#C5C6C6"/>
      <path d="M240.5,160.5 L320.5,160.5 L320.5,240.5 L240.5,240.5 z" fill-opacity="0" stroke="#737370" stroke-width="4" stroke-linejoin="bevel"/>
    </g>
    <g>
      <path d="M80.5,238.5 L160.5,238.5 L160.5,318.5 L80.5,318.5 z" fill="#C5C6C6"/>
      <path d="M80.5,238.5 L160.5,238.5 L160.5,318.5 L80.5,318.5 z" fill-opacity="0" stroke="#737370" stroke-width="4" stroke-linejoin="bevel"/>
    </g>
    <g>
      <path d="M160.5,238.5 L240.5,238.5 L240.5,318.5 L160.5,318.5 z" fill="#C5C6C6"/>
      <path d="M160.5,238.5 L240.5,238.5 L240.5,318.5 L160.5,318.5 z" fill-opacity="0" stroke="#737370" stroke-width="4" stroke-linejoin="bevel"/>
    </g>
    <g>
      <path d="M240.5,238.5 L320.5,238.5 L320.5,318.5 L240.5,318.5 z" fill="#C5C6C6"/>
      <path d="M240.5,238.5 L320.5,238.5 L320.5,318.5 L240.5,318.5 z" fill-opacity="0" stroke="#737370" stroke-width="4" stroke-linejoin="bevel"/>
    </g>
    <text transform="matrix(1, 0, 0, 1, 602.664, 120)">
      <tspan x="-17.562" y="18.5" font-family="Verdana-Bold" font-size="48" fill="#294270">1</tspan>
    </text>
    <text transform="matrix(1, 0, 0, 1, 602.664, 200)">
      <tspan x="-17.562" y="18.5" font-family="Verdana-Bold" font-size="48" fill="#294270">2</tspan>
    </text>
    <text transform="matrix(1, 0, 0, 1, 600.5, 278)">
      <tspan x="-17.562" y="18.5" font-family="Verdana-Bold" font-size="48" fill="#294270">2</tspan>
    </text>
    <g>
      <path d="M880.5,80.5 L960.5,80.5 L960.5,160.5 L880.5,160.5 z" fill="#8FC7ED"/>
      <path d="M880.5,80.5 L960.5,80.5 L960.5,160.5 L880.5,160.5 z" fill-opacity="0" stroke="#006CA9" stroke-width="4" stroke-linejoin="bevel"/>
    </g>
    <g>
      <path d="M960.5,80.5 L1040.5,80.5 L1040.5,160.5 L960.5,160.5 z" fill="#8FC7ED"/>
      <path d="M960.5,80.5 L1040.5,80.5 L1040.5,160.5 L960.5,160.5 z" fill-opacity="0" stroke="#006CA9" stroke-width="4" stroke-linejoin="bevel"/>
    </g>
    <g>
      <path d="M1040.5,80.5 L1120.5,80.5 L1120.5,160.5 L1040.5,160.5 z" fill="#8FC7ED"/>
      <path d="M1040.5,80.5 L1120.5,80.5 L1120.5,160.5 L1040.5,160.5 z" fill-opacity="0" stroke="#006CA9" stroke-width="4" stroke-linejoin="bevel"/>
    </g>
    <g>
      <path d="M880.5,160.5 L960.5,160.5 L960.5,240.5 L880.5,240.5 z" fill="#8FC7ED"/>
      <path d="M880.5,160.5 L960.5,160.5 L960.5,240.5 L880.5,240.5 z" fill-opacity="0" stroke="#006CA9" stroke-width="4" stroke-linejoin="bevel"/>
    </g>
    <g>
      <path d="M960.5,160.5 L1040.5,160.5 L1040.5,240.5 L960.5,240.5 z" fill="#8FC7ED"/>
      <path d="M960.5,160.5 L1040.5,160.5 L1040.5,240.5 L960.5,240.5 z" fill-opacity="0" stroke="#006CA9" stroke-width="4" stroke-linejoin="bevel"/>
    </g>
    <g>
      <path d="M1040.5,160.5 L1120.5,160.5 L1120.5,240.5 L1040.5,240.5 z" fill="#C5C6C6"/>
      <path d="M1040.5,160.5 L1120.5,160.5 L1120.5,240.5 L1040.5,240.5 z" fill-opacity="0" stroke="#737370" stroke-width="4" stroke-linejoin="bevel"/>
    </g>
    <g>
      <path d="M880.5,238.5 L960.5,238.5 L960.5,318.5 L880.5,318.5 z" fill="#8FC7ED"/>
      <path d="M880.5,238.5 L960.5,238.5 L960.5,318.5 L880.5,318.5 z" fill-opacity="0" stroke="#006CA9" stroke-width="4" stroke-linejoin="bevel"/>
    </g>
    <g>
      <path d="M960.5,238.5 L1040.5,238.5 L1040.5,318.5 L960.5,318.5 z" fill="#8FC7ED"/>
      <path d="M960.5,238.5 L1040.5,238.5 L1040.5,318.5 L960.5,318.5 z" fill-opacity="0" stroke="#006CA9" stroke-width="4" stroke-linejoin="bevel"/>
    </g>
    <g>
      <path d="M1040.5,238.5 L1120.5,238.5 L1120.5,318.5 L1040.5,318.5 z" fill="#C5C6C6"/>
      <path d="M1040.5,238.5 L1120.5,238.5 L1120.5,318.5 L1040.5,318.5 z" fill-opacity="0" stroke="#737370" stroke-width="4" stroke-linejoin="bevel"/>
    </g>
    <text transform="matrix(1, 0, 0, 1, 1002.664, 120)">
      <tspan x="-17.562" y="18.5" font-family="Verdana-Bold" font-size="48" fill="#294270">1</tspan>
    </text>
    <text transform="matrix(1, 0, 0, 1, 1002.664, 200)">
      <tspan x="-17.562" y="18.5" font-family="Verdana-Bold" font-size="48" fill="#294270">2</tspan>
    </text>
    <text transform="matrix(1, 0, 0, 1, 1080.5, 120)">
      <tspan x="-17.562" y="18.5" font-family="Verdana-Bold" font-size="48" fill="#294270">1</tspan>
    </text>
    <text transform="matrix(1, 0, 0, 1, 1000.5, 278)">
      <tspan x="-17.562" y="18.5" font-family="Verdana-Bold" font-size="48" fill="#294270">2</tspan>
    </text>
    <text transform="matrix(1, 0, 0, 1, 680.5, 200)">
      <tspan x="-15.301" y="18.5" font-family="Verdana-Bold" font-size="48" fill="#F0801A">?</tspan>
    </text>
    <text transform="matrix(1, 0, 0, 1, 680.5, 278)">
      <tspan x="-15.301" y="18.5" font-family="Verdana-Bold" font-size="48" fill="#F0801A">?</tspan>
    </text>
    <text transform="matrix(1, 0, 0, 1, 1080.5, 200)">
      <tspan x="-18.828" y="18.5" font-family="Verdana-Bold" font-size="48" fill="#F0801A">X</tspan>
    </text>
    <text transform="matrix(1, 0, 0, 1, 1080.5, 278)">
      <tspan x="-18.828" y="18.5" font-family="Verdana-Bold" font-size="48" fill="#F0801A">X</tspan>
    </text>
    <g>
      <text transform="matrix(1, 0, 0, 1, 160.59, 381.554)">
        <tspan x="-80.59" y="11.5" font-family="Verdana-Bold" font-size="30" fill="#294270">checkio([</tspan>
      </text>
      <text transform="matrix(1, 0, 0, 1, 182.036, 417.554)">
        <tspan x="-102.036" y="11.5" font-family="Verdana-Bold" font-size="30" fill="#294270"> [-1, -1, -1],</tspan>
      </text>
      <text transform="matrix(1, 0, 0, 1, 182.036, 453.554)">
        <tspan x="-102.036" y="11.5" font-family="Verdana-Bold" font-size="30" fill="#294270"> [-1, -1, -1],</tspan>
      </text>
      <text transform="matrix(1, 0, 0, 1, 192.919, 489.554)">
        <tspan x="-112.919" y="11.5" font-family="Verdana-Bold" font-size="30" fill="#294270"> [-1, -1, -1]])</tspan>
      </text>
    </g>
    <g>
      <text transform="matrix(1, 0, 0, 1, 560.59, 381.554)">
        <tspan x="-80.59" y="11.5" font-family="Verdana-Bold" font-size="30" fill="#294270">checkio([</tspan>
      </text>
      <text transform="matrix(1, 0, 0, 1, 567.636, 417.554)">
        <tspan x="-87.636" y="11.5" font-family="Verdana-Bold" font-size="30" fill="#294270"> [0, 1, -1],</tspan>
      </text>
      <text transform="matrix(1, 0, 0, 1, 567.636, 453.554)">
        <tspan x="-87.636" y="11.5" font-family="Verdana-Bold" font-size="30" fill="#294270"> [0, 2, -1],</tspan>
      </text>
      <text transform="matrix(1, 0, 0, 1, 578.52, 489.554)">
        <tspan x="-98.52" y="11.5" font-family="Verdana-Bold" font-size="30" fill="#294270"> [0, 2, -1]])</tspan>
      </text>
    </g>
    <text transform="matrix(1, 0, 0, 1, 254.809, 548.5)">
      <tspan x="-144.421" y="11.5" font-family="Verdana-Bold" font-size="30" fill="#294270">Out: [False, 0, 0]</tspan>
    </text>
    <text transform="matrix(1, 0, 0, 1, 997.618, 447)">
      <tspan x="-88.2" y="23" font-family="Verdana-Bold" font-size="60" fill="#294270">WIN!</tspan>
    </text>
    <text transform="matrix(1, 0, 0, 1, 654.421, 548.5)">
      <tspan x="-144.421" y="11.5" font-family="Verdana-Bold" font-size="30" fill="#294270">Out: [False, 0, 2]</tspan>
    </text>
    <g>
      <path d="M80.5,640.5 L160.5,640.5 L160.5,720.5 L80.5,720.5 z" fill="#8FC7ED"/>
      <path d="M80.5,640.5 L160.5,640.5 L160.5,720.5 L80.5,720.5 z" fill-opacity="0" stroke="#006CA9" stroke-width="4" stroke-linejoin="bevel"/>
    </g>
    <g>
      <path d="M160.5,640.5 L240.5,640.5 L240.5,720.5 L160.5,720.5 z" fill="#8FC7ED"/>
      <path d="M160.5,640.5 L240.5,640.5 L240.5,720.5 L160.5,720.5 z" fill-opacity="0" stroke="#006CA9" stroke-width="4" stroke-linejoin="bevel"/>
    </g>
    <g>
      <path d="M240.5,640.5 L320.5,640.5 L320.5,720.5 L240.5,720.5 z" fill="#C5C6C6"/>
      <path d="M240.5,640.5 L320.5,640.5 L320.5,720.5 L240.5,720.5 z" fill-opacity="0" stroke="#737370" stroke-width="4" stroke-linejoin="bevel"/>
    </g>
    <g>
      <path d="M80.5,720.5 L160.5,720.5 L160.5,800.5 L80.5,800.5 z" fill="#8FC7ED"/>
      <path d="M80.5,720.5 L160.5,720.5 L160.5,800.5 L80.5,800.5 z" fill-opacity="0" stroke="#006CA9" stroke-width="4" stroke-linejoin="bevel"/>
    </g>
    <g>
      <path d="M160.5,720.5 L240.5,720.5 L240.5,800.5 L160.5,800.5 z" fill="#8FC7ED"/>
      <path d="M160.5,720.5 L240.5,720.5 L240.5,800.5 L160.5,800.5 z" fill-opacity="0" stroke="#006CA9" stroke-width="4" stroke-linejoin="bevel"/>
    </g>
    <g>
      <path d="M240.5,720.5 L320.5,720.5 L320.5,800.5 L240.5,800.5 z" fill="#C5C6C6"/>
      <path d="M240.5,720.5 L320.5,720.5 L320.5,800.5 L240.5,800.5 z" fill-opacity="0" stroke="#737370" stroke-width="4" stroke-linejoin="bevel"/>
    </g>
    <g>
      <path d="M80.5,798.5 L160.5,798.5 L160.5,878.5 L80.5,878.5 z" fill="#8FC7ED"/>
      <path d="M80.5,798.5 L160.5,798.5 L160.5,878.5 L80.5,878.5 z" fill-opacity="0" stroke="#006CA9" stroke-width="4" stroke-linejoin="bevel"/>
    </g>
    <g>
      <path d="M160.5,798.5 L240.5,798.5 L240.5,878.5 L160.5,878.5 z" fill="#8FC7ED"/>
      <path d="M160.5,798.5 L240.5,798.5 L240.5,878.5 L160.5,878.5 z" fill-opacity="0" stroke="#006CA9" stroke-width="4" stroke-linejoin="bevel"/>
    </g>
    <g>
      <path d="M240.5,798.5 L320.5,798.5 L320.5,878.5 L240.5,878.5 z" fill="#C5C6C6"/>
      <path d="M240.5,798.5 L320.5,798.5 L320.5,878.5 L240.5,878.5 z" fill-opacity="0" stroke="#737370" stroke-width="4" stroke-linejoin="bevel"/>
    </g>
    <text transform="matrix(1, 0, 0, 1, 202.665, 680)">
      <tspan x="-17.562" y="18.5" font-family="Verdana-Bold" font-size="48" fill="#294270">1</tspan>
    </text>
    <text transform="matrix(1, 0, 0, 1, 202.665, 760)">
      <tspan x="-17.562" y="18.5" font-family="Verdana-Bold" font-size="48" fill="#294270">2</tspan>
    </text>
    <text transform="matrix(1, 0, 0, 1, 200.501, 838)">
      <tspan x="-17.562" y="18.5" font-family="Verdana-Bold" font-size="48" fill="#294270">2</tspan>
    </text>
    <g>
      <path d="M480.5,640.5 L560.5,640.5 L560.5,720.5 L480.5,720.5 z" fill="#8FC7ED"/>
      <path d="M480.5,640.5 L560.5,640.5 L560.5,720.5 L480.5,720.5 z" fill-opacity="0" stroke="#006CA9" stroke-width="4" stroke-linejoin="bevel"/>
    </g>
    <g>
      <path d="M560.5,640.5 L640.5,640.5 L640.5,720.5 L560.5,720.5 z" fill="#8FC7ED"/>
      <path d="M560.5,640.5 L640.5,640.5 L640.5,720.5 L560.5,720.5 z" fill-opacity="0" stroke="#006CA9" stroke-width="4" stroke-linejoin="bevel"/>
    </g>
    <g>
      <path d="M480.5,720.5 L560.5,720.5 L560.5,800.5 L480.5,800.5 z" fill="#8FC7ED"/>
      <path d="M480.5,720.5 L560.5,720.5 L560.5,800.5 L480.5,800.5 z" fill-opacity="0" stroke="#006CA9" stroke-width="4" stroke-linejoin="bevel"/>
    </g>
    <g>
      <path d="M560.5,720.5 L640.5,720.5 L640.5,800.5 L560.5,800.5 z" fill="#8FC7ED"/>
      <path d="M560.5,720.5 L640.5,720.5 L640.5,800.5 L560.5,800.5 z" fill-opacity="0" stroke="#006CA9" stroke-width="4" stroke-linejoin="bevel"/>
    </g>
    <g>
      <path d="M640.5,720.5 L720.5,720.5 L720.5,800.5 L640.5,800.5 z" fill="#C5C6C6"/>
      <path d="M640.5,720.5 L720.5,720.5 L720.5,800.5 L640.5,800.5 z" fill-opacity="0" stroke="#737370" stroke-width="4" stroke-linejoin="bevel"/>
    </g>
    <g>
      <path d="M480.5,798.5 L560.5,798.5 L560.5,878.5 L480.5,878.5 z" fill="#8FC7ED"/>
      <path d="M480.5,798.5 L560.5,798.5 L560.5,878.5 L480.5,878.5 z" fill-opacity="0" stroke="#006CA9" stroke-width="4" stroke-linejoin="bevel"/>
    </g>
    <g>
      <path d="M560.5,798.5 L640.5,798.5 L640.5,878.5 L560.5,878.5 z" fill="#8FC7ED"/>
      <path d="M560.5,798.5 L640.5,798.5 L640.5,878.5 L560.5,878.5 z" fill-opacity="0" stroke="#006CA9" stroke-width="4" stroke-linejoin="bevel"/>
    </g>
    <g>
      <path d="M640.5,798.5 L720.5,798.5 L720.5,878.5 L640.5,878.5 z" fill="#C5C6C6"/>
      <path d="M640.5,798.5 L720.5,798.5 L720.5,878.5 L640.5,878.5 z" fill-opacity="0" stroke="#737370" stroke-width="4" stroke-linejoin="bevel"/>
    </g>
    <text transform="matrix(1, 0, 0, 1, 602.664, 680)">
      <tspan x="-17.562" y="18.5" font-family="Verdana-Bold" font-size="48" fill="#294270">1</tspan>
    </text>
    <text transform="matrix(1, 0, 0, 1, 602.664, 760)">
      <tspan x="-17.562" y="18.5" font-family="Verdana-Bold" font-size="48" fill="#294270">2</tspan>
    </text>
    <text transform="matrix(1, 0, 0, 1, 600.5, 838)">
      <tspan x="-17.562" y="18.5" font-family="Verdana-Bold" font-size="48" fill="#294270">2</tspan>
    </text>
    <text transform="matrix(1, 0, 0, 1, 280.5, 760)">
      <tspan x="-15.301" y="18.5" font-family="Verdana-Bold" font-size="48" fill="#F0801A">?</tspan>
    </text>
    <text transform="matrix(1, 0, 0, 1, 280.5, 838)">
      <tspan x="-15.301" y="18.5" font-family="Verdana-Bold" font-size="48" fill="#F0801A">?</tspan>
    </text>
    <text transform="matrix(1, 0, 0, 1, 680.5, 838)">
      <tspan x="-18.828" y="18.5" font-family="Verdana-Bold" font-size="48" fill="#F0801A">X</tspan>
    </text>
    <g>
      <text transform="matrix(1, 0, 0, 1, 160.59, 941.554)">
        <tspan x="-80.59" y="11.5" font-family="Verdana-Bold" font-size="30" fill="#294270">checkio([</tspan>
      </text>
      <text transform="matrix(1, 0, 0, 1, 167.636, 977.554)">
        <tspan x="-87.636" y="11.5" font-family="Verdana-Bold" font-size="30" fill="#294270"> [0, 1, -1],</tspan>
      </text>
      <text transform="matrix(1, 0, 0, 1, 167.636, 1013.554)">
        <tspan x="-87.636" y="11.5" font-family="Verdana-Bold" font-size="30" fill="#294270"> [0, 2, -1],</tspan>
      </text>
      <text transform="matrix(1, 0, 0, 1, 178.52, 1049.554)">
        <tspan x="-98.52" y="11.5" font-family="Verdana-Bold" font-size="30" fill="#294270"> [0, 2, -1]])</tspan>
      </text>
    </g>
    <g>
      <text transform="matrix(1, 0, 0, 1, 560.59, 941.554)">
        <tspan x="-80.59" y="11.5" font-family="Verdana-Bold" font-size="30" fill="#294270">checkio([</tspan>
      </text>
      <text transform="matrix(1, 0, 0, 1, 567.636, 977.554)">
        <tspan x="-87.636" y="11.5" font-family="Verdana-Bold" font-size="30" fill="#294270"> [0, 1, -1],</tspan>
      </text>
      <text transform="matrix(1, 0, 0, 1, 567.636, 1013.554)">
        <tspan x="-87.636" y="11.5" font-family="Verdana-Bold" font-size="30" fill="#294270"> [0, 2, -1],</tspan>
      </text>
      <text transform="matrix(1, 0, 0, 1, 571.32, 1049.554)">
        <tspan x="-91.32" y="11.5" font-family="Verdana-Bold" font-size="30" fill="#294270"> [0, 2, 9]])</tspan>
      </text>
    </g>
    <text transform="matrix(1, 0, 0, 1, 248.986, 1108.5)">
      <tspan x="-138.986" y="11.5" font-family="Verdana-Bold" font-size="30" fill="#294270">Out: [True, 2, 2]</tspan>
    </text>
    <g>
      <path d="M640.5,640.5 L720.5,640.5 L720.5,720.5 L640.5,720.5 z" fill="#C5C6C6"/>
      <path d="M640.5,640.5 L720.5,640.5 L720.5,720.5 L640.5,720.5 z" fill-opacity="0" stroke="#737370" stroke-width="4" stroke-linejoin="bevel"/>
    </g>
    <text transform="matrix(1, 0, 0, 1, 680.5, 760)">
      <tspan x="-15.301" y="18.5" font-family="Verdana-Bold" font-size="48" fill="#F0801A">?</tspan>
    </text>
    <text transform="matrix(1, 0, 0, 1, 648.986, 1108.5)">
      <tspan x="-138.986" y="11.5" font-family="Verdana-Bold" font-size="30" fill="#294270">Out: [True, 1, 2]</tspan>
    </text>
    <g>
      <path d="M880.5,640.5 L960.5,640.5 L960.5,720.5 L880.5,720.5 z" fill="#8FC7ED"/>
      <path d="M880.5,640.5 L960.5,640.5 L960.5,720.5 L880.5,720.5 z" fill-opacity="0" stroke="#006CA9" stroke-width="4" stroke-linejoin="bevel"/>
    </g>
    <g>
      <path d="M960.5,640.5 L1040.5,640.5 L1040.5,720.5 L960.5,720.5 z" fill="#8FC7ED"/>
      <path d="M960.5,640.5 L1040.5,640.5 L1040.5,720.5 L960.5,720.5 z" fill-opacity="0" stroke="#006CA9" stroke-width="4" stroke-linejoin="bevel"/>
    </g>
    <g>
      <path d="M1040.5,640.5 L1120.5,640.5 L1120.5,720.5 L1040.5,720.5 z" fill="#8FC7ED"/>
      <path d="M1040.5,640.5 L1120.5,640.5 L1120.5,720.5 L1040.5,720.5 z" fill-opacity="0" stroke="#006CA9" stroke-width="4" stroke-linejoin="bevel"/>
    </g>
    <g>
      <path d="M880.5,720.5 L960.5,720.5 L960.5,800.5 L880.5,800.5 z" fill="#8FC7ED"/>
      <path d="M880.5,720.5 L960.5,720.5 L960.5,800.5 L880.5,800.5 z" fill-opacity="0" stroke="#006CA9" stroke-width="4" stroke-linejoin="bevel"/>
    </g>
    <g>
      <path d="M960.5,720.5 L1040.5,720.5 L1040.5,800.5 L960.5,800.5 z" fill="#8FC7ED"/>
      <path d="M960.5,720.5 L1040.5,720.5 L1040.5,800.5 L960.5,800.5 z" fill-opacity="0" stroke="#006CA9" stroke-width="4" stroke-linejoin="bevel"/>
    </g>
    <g>
      <path d="M1040.5,720.5 L1120.5,720.5 L1120.5,800.5 L1040.5,800.5 z" fill="#C5C6C6"/>
      <path d="M1040.5,720.5 L1120.5,720.5 L1120.5,800.5 L1040.5,800.5 z" fill-opacity="0" stroke="#737370" stroke-width="4" stroke-linejoin="bevel"/>
    </g>
    <g>
      <path d="M880.5,798.5 L960.5,798.5 L960.5,878.5 L880.5,878.5 z" fill="#8FC7ED"/>
      <path d="M880.5,798.5 L960.5,798.5 L960.5,878.5 L880.5,878.5 z" fill-opacity="0" stroke="#006CA9" stroke-width="4" stroke-linejoin="bevel"/>
    </g>
    <g>
      <path d="M960.5,798.5 L1040.5,798.5 L1040.5,878.5 L960.5,878.5 z" fill="#8FC7ED"/>
      <path d="M960.5,798.5 L1040.5,798.5 L1040.5,878.5 L960.5,878.5 z" fill-opacity="0" stroke="#006CA9" stroke-width="4" stroke-linejoin="bevel"/>
    </g>
    <g>
      <path d="M1040.5,798.5 L1120.5,798.5 L1120.5,878.5 L1040.5,878.5 z" fill="#C5C6C6"/>
      <path d="M1040.5,798.5 L1120.5,798.5 L1120.5,878.5 L1040.5,878.5 z" fill-opacity="0" stroke="#737370" stroke-width="4" stroke-linejoin="bevel"/>
    </g>
    <text transform="matrix(1, 0, 0, 1, 1002.664, 680)">
      <tspan x="-17.562" y="18.5" font-family="Verdana-Bold" font-size="48" fill="#294270">1</tspan>
    </text>
    <text transform="matrix(1, 0, 0, 1, 1002.664, 760)">
      <tspan x="-17.562" y="18.5" font-family="Verdana-Bold" font-size="48" fill="#294270">2</tspan>
    </text>
    <text transform="matrix(1, 0, 0, 1, 1080.5, 680)">
      <tspan x="-17.562" y="18.5" font-family="Verdana-Bold" font-size="48" fill="#294270">1</tspan>
    </text>
    <text transform="matrix(1, 0, 0, 1, 1000.5, 838)">
      <tspan x="-17.562" y="18.5" font-family="Verdana-Bold" font-size="48" fill="#294270">2</tspan>
    </text>
    <text transform="matrix(1, 0, 0, 1, 1080.5, 760)">
      <tspan x="-18.828" y="18.5" font-family="Verdana-Bold" font-size="48" fill="#F0801A">X</tspan>
    </text>
    <text transform="matrix(1, 0, 0, 1, 1080.5, 838)">
      <tspan x="-18.828" y="18.5" font-family="Verdana-Bold" font-size="48" fill="#F0801A">X</tspan>
    </text>
    <text transform="matrix(1, 0, 0, 1, 600.5, 609.5)">
      <tspan x="-219.43" y="18.5" font-family="Verdana-Bold" font-size="48" fill="#294270">Another method</tspan>
    </text>
    <text transform="matrix(1, 0, 0, 1, 997.618, 998.527)">
      <tspan x="-88.2" y="23" font-family="Verdana-Bold" font-size="60" fill="#294270">WIN!</tspan>
    </text>
  </g>
  <defs/>
</svg>
